<svg width="109" height="100" viewBox="0 0 109 100" fill="none" xmlns="http://www.w3.org/2000/svg">
<mask id="path-1-outside-1_231_30" maskUnits="userSpaceOnUse" x="-0.248047" y="-0.400024" width="109" height="100" fill="black">
<rect fill="white" x="-0.248047" y="-0.400024" width="109" height="100"/>
<path d="M70.92 8.45597C72.2 6.15197 74.0346 4.99997 76.424 4.99997H99.848C100.787 4.99997 101.597 5.3413 102.28 6.02397C102.963 6.70664 103.304 7.51731 103.304 8.45597V91.144C103.304 92.0826 102.963 92.8933 102.28 93.576C101.597 94.2586 100.787 94.6 99.848 94.6H76.68C75.7413 94.6 74.9306 94.2586 74.248 93.576C73.5653 92.8933 73.224 92.0826 73.224 91.144V51.464L63.88 69.896C63.624 70.4933 63.0266 71.176 62.088 71.944C61.1493 72.712 59.9546 73.096 58.504 73.096H49.8C48.3493 73.096 47.1546 72.712 46.216 71.944C45.2773 71.176 44.68 70.4933 44.424 69.896L35.08 51.464V91.144C35.08 92.0826 34.7386 92.8933 34.056 93.576C33.3733 94.2586 32.5626 94.6 31.624 94.6H8.45595C7.51729 94.6 6.70662 94.2586 6.02395 93.576C5.34129 92.8933 4.99995 92.0826 4.99995 91.144V8.45597C4.99995 7.51731 5.34129 6.70664 6.02395 6.02397C6.70662 5.3413 7.51729 4.99997 8.45595 4.99997H31.88C34.2693 4.99997 36.104 6.15197 37.384 8.45597L54.152 39.176L70.92 8.45597Z"/>
</mask>
<path d="M70.92 8.45597C72.2 6.15197 74.0346 4.99997 76.424 4.99997H99.848C100.787 4.99997 101.597 5.3413 102.28 6.02397C102.963 6.70664 103.304 7.51731 103.304 8.45597V91.144C103.304 92.0826 102.963 92.8933 102.28 93.576C101.597 94.2586 100.787 94.6 99.848 94.6H76.68C75.7413 94.6 74.9306 94.2586 74.248 93.576C73.5653 92.8933 73.224 92.0826 73.224 91.144V51.464L63.88 69.896C63.624 70.4933 63.0266 71.176 62.088 71.944C61.1493 72.712 59.9546 73.096 58.504 73.096H49.8C48.3493 73.096 47.1546 72.712 46.216 71.944C45.2773 71.176 44.68 70.4933 44.424 69.896L35.08 51.464V91.144C35.08 92.0826 34.7386 92.8933 34.056 93.576C33.3733 94.2586 32.5626 94.6 31.624 94.6H8.45595C7.51729 94.6 6.70662 94.2586 6.02395 93.576C5.34129 92.8933 4.99995 92.0826 4.99995 91.144V8.45597C4.99995 7.51731 5.34129 6.70664 6.02395 6.02397C6.70662 5.3413 7.51729 4.99997 8.45595 4.99997H31.88C34.2693 4.99997 36.104 6.15197 37.384 8.45597L54.152 39.176L70.92 8.45597Z" fill="#410029"/>
<path d="M70.92 8.45597L66.5492 6.02776C66.5431 6.03863 66.5371 6.04951 66.5312 6.06042L70.92 8.45597ZM102.28 6.02397L105.816 2.48845L105.815 2.48843L102.28 6.02397ZM102.28 93.576L105.815 97.1115L105.816 97.1115L102.28 93.576ZM73.224 51.464H78.224C78.224 49.1503 76.6365 47.1387 74.3862 46.6009C72.1359 46.0631 69.8104 47.1395 68.7643 49.2032L73.224 51.464ZM63.88 69.896L59.4203 67.6352C59.3718 67.7308 59.3265 67.8279 59.2842 67.9264L63.88 69.896ZM62.088 71.944L65.2541 75.8138V75.8138L62.088 71.944ZM46.216 71.944L43.0498 75.8138L43.0498 75.8138L46.216 71.944ZM44.424 69.896L49.0197 67.9264C48.9775 67.8279 48.9321 67.7308 48.8836 67.6352L44.424 69.896ZM35.08 51.464L39.5396 49.2032C38.4935 47.1395 36.1681 46.0631 33.9177 46.6009C31.6674 47.1387 30.08 49.1503 30.08 51.464H35.08ZM34.056 93.576L30.5204 90.0404L30.5204 90.0404L34.056 93.576ZM37.384 8.45597L41.7727 6.06043C41.7668 6.04951 41.7608 6.03863 41.7547 6.02776L37.384 8.45597ZM54.152 39.176L49.7632 41.5715C50.6396 43.1771 52.3228 44.176 54.152 44.176C55.9812 44.176 57.6643 43.1771 58.5407 41.5715L54.152 39.176ZM70.92 8.45597L75.2907 10.8842C75.6095 10.3105 75.8504 10.1388 75.9148 10.0984C75.9547 10.0733 76.0698 9.99997 76.424 9.99997V4.99997V-3.05176e-05C72.0012 -3.05176e-05 68.6001 2.33617 66.5492 6.02776L70.92 8.45597ZM76.424 4.99997V9.99997H99.848V4.99997V-3.05176e-05H76.424V4.99997ZM99.848 4.99997V9.99997C99.6962 9.99997 99.469 9.96912 99.2197 9.86414C98.9732 9.76035 98.8157 9.63074 98.7444 9.55951L102.28 6.02397L105.815 2.48843C104.225 0.898018 102.154 -3.05176e-05 99.848 -3.05176e-05V4.99997ZM102.28 6.02397L98.7444 9.55949C98.6732 9.48826 98.5436 9.33076 98.4398 9.08425C98.3348 8.83495 98.304 8.6077 98.304 8.45597H103.304H108.304C108.304 6.14951 107.406 4.07888 105.816 2.48845L102.28 6.02397ZM103.304 8.45597H98.304V91.144H103.304H108.304V8.45597H103.304ZM103.304 91.144H98.304C98.304 90.9922 98.3348 90.765 98.4398 90.5157C98.5436 90.2692 98.6732 90.1117 98.7444 90.0405L102.28 93.576L105.816 97.1115C107.406 95.5211 108.304 93.4504 108.304 91.144H103.304ZM102.28 93.576L98.7444 90.0404C98.8157 89.9692 98.9732 89.8396 99.2197 89.7358C99.469 89.6308 99.6962 89.6 99.848 89.6V94.6V99.6C102.154 99.6 104.225 98.7019 105.815 97.1115L102.28 93.576ZM99.848 94.6V89.6H76.68V94.6V99.6H99.848V94.6ZM76.68 94.6V89.6C76.8317 89.6 77.0589 89.6308 77.3082 89.7358C77.5548 89.8396 77.7122 89.9692 77.7835 90.0404L74.248 93.576L70.7124 97.1115C72.3028 98.7019 74.3735 99.6 76.68 99.6V94.6ZM74.248 93.576L77.7835 90.0404C77.8547 90.1117 77.9843 90.2692 78.0881 90.5157C78.1931 90.765 78.224 90.9922 78.224 91.144H73.224H68.224C68.224 93.4505 69.122 95.5211 70.7124 97.1115L74.248 93.576ZM73.224 91.144H78.224V51.464H73.224H68.224V91.144H73.224ZM73.224 51.464L68.7643 49.2032L59.4203 67.6352L63.88 69.896L68.3396 72.1568L77.6836 53.7248L73.224 51.464ZM63.88 69.896L59.2842 67.9264C59.36 67.7495 59.4308 67.6358 59.4637 67.5865C59.4972 67.5363 59.5075 67.5287 59.4771 67.5634C59.4475 67.5973 59.3898 67.6592 59.2948 67.7489C59.2005 67.838 59.0778 67.9465 58.9218 68.0742L62.088 71.944L65.2541 75.8138C66.3641 74.9056 67.7335 73.5973 68.4757 71.8656L63.88 69.896ZM62.088 71.944L58.9218 68.0742C58.9541 68.0478 58.98 68.0407 58.9579 68.0478C58.9253 68.0583 58.7892 68.096 58.504 68.096V73.096V78.096C60.8732 78.096 63.2554 77.4491 65.2541 75.8138L62.088 71.944ZM58.504 73.096V68.096H49.8V73.096V78.096H58.504V73.096ZM49.8 73.096V68.096C49.5147 68.096 49.3786 68.0583 49.346 68.0478C49.324 68.0407 49.3499 68.0478 49.3821 68.0742L46.216 71.944L43.0498 75.8138C45.0485 77.4491 47.4307 78.096 49.8 78.096V73.096ZM46.216 71.944L49.3821 68.0742C49.2261 67.9465 49.1034 67.838 49.0091 67.7489C48.9141 67.6592 48.8564 67.5973 48.8268 67.5635C48.7965 67.5287 48.8067 67.5363 48.8402 67.5865C48.8731 67.6358 48.9439 67.7495 49.0197 67.9264L44.424 69.896L39.8282 71.8656C40.5704 73.5973 41.9398 74.9056 43.0498 75.8138L46.216 71.944ZM44.424 69.896L48.8836 67.6352L39.5396 49.2032L35.08 51.464L30.6203 53.7248L39.9643 72.1568L44.424 69.896ZM35.08 51.464H30.08V91.144H35.08H40.08V51.464H35.08ZM35.08 91.144H30.08C30.08 90.9922 30.1108 90.765 30.2158 90.5157C30.3196 90.2692 30.4492 90.1117 30.5204 90.0404L34.056 93.576L37.5915 97.1115C39.1819 95.5211 40.08 93.4505 40.08 91.144H35.08ZM34.056 93.576L30.5204 90.0404C30.5917 89.9692 30.7491 89.8396 30.9957 89.7358C31.245 89.6308 31.4722 89.6 31.624 89.6V94.6V99.6C33.9304 99.6 36.0011 98.7019 37.5915 97.1115L34.056 93.576ZM31.624 94.6V89.6H8.45595V94.6V99.6H31.624V94.6ZM8.45595 94.6V89.6C8.60769 89.6 8.83493 89.6308 9.08424 89.7358C9.33076 89.8396 9.48825 89.9692 9.55949 90.0404L6.02395 93.576L2.48842 97.1115C4.07885 98.7019 6.14948 99.6 8.45595 99.6V94.6ZM6.02395 93.576L9.55949 90.0404C9.63072 90.1117 9.76033 90.2692 9.86413 90.5157C9.9691 90.765 9.99995 90.9922 9.99995 91.144H4.99995H-4.673e-05C-4.673e-05 93.4504 0.897993 95.5211 2.48842 97.1115L6.02395 93.576ZM4.99995 91.144H9.99995V8.45597H4.99995H-4.673e-05V91.144H4.99995ZM4.99995 8.45597H9.99995C9.99995 8.6077 9.9691 8.83495 9.86413 9.08426C9.76033 9.33078 9.63072 9.48827 9.55949 9.5595L6.02395 6.02397L2.48842 2.48844C0.897995 4.07887 -4.673e-05 6.1495 -4.673e-05 8.45597H4.99995ZM6.02395 6.02397L9.55949 9.5595C9.48826 9.63074 9.33076 9.76035 9.08424 9.86414C8.83493 9.96912 8.60769 9.99997 8.45595 9.99997V4.99997V-3.05176e-05C6.14948 -3.05176e-05 4.07884 0.89801 2.48842 2.48844L6.02395 6.02397ZM8.45595 4.99997V9.99997H31.88V4.99997V-3.05176e-05H8.45595V4.99997ZM31.88 4.99997V9.99997C32.2341 9.99997 32.3492 10.0733 32.3891 10.0984C32.4535 10.1388 32.6944 10.3105 33.0132 10.8842L37.384 8.45597L41.7547 6.02776C39.7039 2.33617 36.3027 -3.05176e-05 31.88 -3.05176e-05V4.99997ZM37.384 8.45597L32.9952 10.8515L49.7632 41.5715L54.152 39.176L58.5407 36.7804L41.7727 6.06043L37.384 8.45597ZM54.152 39.176L58.5407 41.5715L75.3087 10.8515L70.92 8.45597L66.5312 6.06042L49.7632 36.7804L54.152 39.176Z" fill="#FF747D" mask="url(#path-1-outside-1_231_30)"/>
</svg>
